HIERARCHY
ROOT Hips
{
	OFFSET 0.00000 0.00000 0.00000
	CHANNELS 6 Xposition Yposition Zposition Zrotation Yrotation Xrotation 
	JOINT LHipJoint
	{
		OFFSET 0 0 0
		CHANNELS 3 Zrotation Yrotation Xrotation
		JOINT LeftUpLeg
		{
			OFFSET 1.77779 -1.88989 0.48267
			CHANNELS 3 Zrotation Yrotation Xrotation
			JOINT LeftLeg
			{
				OFFSET 2.53442 -6.96327 0.00000
				CHANNELS 3 Zrotation Yrotation Xrotation
				JOINT LeftFoot
				{
					OFFSET 2.71068 -7.44755 0.00000
					CHANNELS 3 Zrotation Yrotation Xrotation
					JOINT LeftToeBase
					{
						OFFSET 0.17992 -0.49431 2.22524
						CHANNELS 3 Zrotation Yrotation Xrotation
						End Site
						{
							OFFSET 0.00000 -0.00000 1.14687
						}
					}
				}
			}
		}
	}
	JOINT RHipJoint
	{
		OFFSET 0 0 0
		CHANNELS 3 Zrotation Yrotation Xrotation
		JOINT RightUpLeg
		{
			OFFSET -1.58469 -1.88989 0.48267
			CHANNELS 3 Zrotation Yrotation Xrotation
			JOINT RightLeg
			{
				OFFSET -2.60386 -7.15404 0.00000
				CHANNELS 3 Zrotation Yrotation Xrotation
				JOINT RightFoot
				{
					OFFSET -2.73334 -7.50979 0.00000
					CHANNELS 3 Zrotation Yrotation Xrotation
					JOINT RightToeBase
					{
						OFFSET -0.25618 -0.70384 2.21822
						CHANNELS 3 Zrotation Yrotation Xrotation
						End Site
						{
							OFFSET -0.00000 -0.00000 1.16381
						}
					}
				}
			}
		}
	}
	JOINT LowerBack
	{
		OFFSET 0 0 0
		CHANNELS 3 Zrotation Yrotation Xrotation
		JOINT Spine
		{
			OFFSET 0.03410 2.01612 -0.22230
			CHANNELS 3 Zrotation Yrotation Xrotation
			JOINT Spine1
			{
				OFFSET 0.03465 2.03012 0.00937
				CHANNELS 3 Zrotation Yrotation Xrotation
				JOINT Neck
				{
					OFFSET 0 0 0
					CHANNELS 3 Zrotation Yrotation Xrotation
					JOINT Neck1
					{
						OFFSET -0.00219 1.70459 0.20857
						CHANNELS 3 Zrotation Yrotation Xrotation
						JOINT Head
						{
							OFFSET 0.02518 1.72339 -0.22179
							CHANNELS 3 Zrotation Yrotation Xrotation
							End Site
							{
								OFFSET 0.00282 1.74122 -0.09823
							}
						}
					}
				}
				JOINT LeftShoulder
				{
					OFFSET 0 0 0
					CHANNELS 3 Zrotation Yrotation Xrotation
					JOINT LeftArm
					{
						OFFSET 3.36358 1.00547 -0.37661
						CHANNELS 3 Zrotation Yrotation Xrotation
						JOINT LeftForeArm
						{
							OFFSET 5.06507 -0.00000 0.00000
							CHANNELS 3 Zrotation Yrotation Xrotation
							JOINT LeftHand
							{
								OFFSET 3.60196 -0.00000 0.00000
								CHANNELS 3 Zrotation Yrotation Xrotation
								JOINT LeftFingerBase
								{
									OFFSET 0 0 0
									CHANNELS 3 Zrotation Yrotation Xrotation
									JOINT LeftHandIndex1
									{
										OFFSET 0.45035 -0.00000 0.00000
										CHANNELS 3 Zrotation Yrotation Xrotation
										End Site
										{
											OFFSET 0.36308 -0.00000 0.00000
										}
									}
								}
								JOINT LThumb
								{
									OFFSET 0 0 0
									CHANNELS 3 Zrotation Yrotation Xrotation
									End Site
									{
										OFFSET 0.36862 -0.00000 0.36862
									}
								}
							}
						}
					}
				}
				JOINT RightShoulder
				{
					OFFSET 0 0 0
					CHANNELS 3 Zrotation Yrotation Xrotation
					JOINT RightArm
					{
						OFFSET -3.50159 0.80383 -0.71526
						CHANNELS 3 Zrotation Yrotation Xrotation
						JOINT RightForeArm
						{
							OFFSET -5.36394 -0.00000 0.00000
							CHANNELS 3 Zrotation Yrotation Xrotation
							JOINT RightHand
							{
								OFFSET -3.58035 -0.00000 0.00000
								CHANNELS 3 Zrotation Yrotation Xrotation
								JOINT RightFingerBase
								{
									OFFSET 0 0 0
									CHANNELS 3 Zrotation Yrotation Xrotation
									JOINT RightHandIndex1
									{
										OFFSET -0.66375 -0.00000 0.00000
										CHANNELS 3 Zrotation Yrotation Xrotation
										End Site
										{
											OFFSET -0.53513 -0.00000 0.00000
										}
									}
								}
								JOINT RThumb
								{
									OFFSET 0 0 0
									CHANNELS 3 Zrotation Yrotation Xrotation
									End Site
									{
										OFFSET -0.54330 -0.00000 0.54330
									}
								}
							}
						}
					}
				}
			}
		}
	}
}
MOTION
Frames: 11
Frame Time: .0083333
0.6851 17.1778 9.5047 -5.3990 0.2903 2.6936 0.0000 0.0000 0.0000 -7.5619 -2.7691 -41.4842 22.9611 19.7885 98.6871 -0.5013 -12.4485 3.8570 0.0435 -1.3454 -3.6996 0.0000 0.0000 0.0000 36.1041 7.8661 2.1755 -5.0983 -13.4936 41.2456 -1.4126 -7.6356 -26.3741 -0.7773 5.6292 -15.7123 5.9589 1.3092 15.4531 1.8469 3.0587 -1.4745 -2.0887 1.1848 -10.1135 -1.4366 -5.9227 -21.0227 3.8227 -8.1501 10.3757 0.5124 -3.6281 6.7825 0.0000 0.0000 0.0000 -80.6686 29.4595 49.9668 127.4610 -53.9696 -91.7851 -0.0000 0.0000 -26.9189 29.9694 -2.5410 -1.4645 -7.1250 0.0000 -0.0000 2.5849 27.0450 -1.1280 0.0000 0.0000 0.0000 90.6020 0.0158 40.6151 -141.0610 47.4286 -102.3462 0.0000 -0.0000 -28.7220 -3.2532 40.6054 -2.1186 7.1250 -0.0000 -0.0000 16.4082 9.2289 19.5820
0.7200 17.2747 10.0264 -5.3592 0.3897 2.7726 0.0000 0.0000 0.0000 -8.1012 -3.2614 -42.5384 21.8786 19.9152 95.5000 -0.4286 -11.7070 2.0356 0.1418 -2.4267 -6.6866 0.0000 0.0000 0.0000 35.8977 6.9959 4.1598 -4.7613 -13.1099 39.7812 -1.0763 -6.9332 -23.2619 -0.8561 5.9007 -16.4967 6.2549 1.5219 15.3599 1.7072 3.3908 -1.7241 -2.4830 1.3112 -10.2882 -1.5191 -6.1837 -20.8444 3.8464 -8.4896 10.4844 0.4941 -3.7928 6.8023 -0.0000 0.0000 0.0000 -80.6101 31.0159 49.6432 127.8915 -53.8113 -92.1329 -0.0000 0.0000 -26.5770 29.6946 -2.6608 -1.5165 -7.1250 0.0000 -0.0000 2.3696 26.9156 -1.0411 -0.0000 0.0000 0.0000 90.6377 0.5831 39.9445 -141.8683 46.9232 -102.9383 0.0000 -0.0000 -30.2256 -0.8623 41.8761 -0.5756 7.1250 -0.0000 -0.0000 17.6587 10.1911 21.4535
0.7767 17.3916 10.5871 -4.9282 0.7693 3.0825 0.0000 0.0000 0.0000 -9.3344 -4.2517 -43.0363 20.5894 19.9917 91.7236 -0.3119 -10.1968 0.9023 0.2668 -3.3227 -9.1785 0.0000 0.0000 0.0000 34.8784 5.6475 5.7556 -4.4097 -12.6865 38.2059 -0.7736 -5.9041 -19.7853 -0.8885 6.0082 -16.8084 6.4906 1.6374 14.4752 1.4104 3.4964 -1.9277 -2.9248 1.3491 -9.9606 -1.6248 -6.3528 -20.4618 3.9721 -8.7110 10.4430 0.5347 -3.8992 6.7439 0.0000 -0.0000 0.0000 -80.7120 32.5507 49.0007 128.2589 -53.6740 -92.4292 -0.0000 0.0000 -26.3409 29.3684 -1.8944 -1.0657 -7.1250 0.0000 -0.0000 2.1505 27.8042 -0.8997 0.0000 -0.0000 0.0000 90.6508 0.6670 39.9939 -142.9466 46.2240 -103.7214 0.0000 -0.0000 -31.6124 -1.0634 40.4627 -0.6901 7.1250 -0.0000 -0.0000 17.4790 8.8649 20.8837
0.8008 17.4942 11.1275 -4.7347 1.6823 2.4972 0.0000 0.0000 0.0000 -10.0921 -5.3056 -42.6171 19.2393 19.9861 87.7755 -0.2260 -9.0330 -0.2517 0.4093 -4.1068 -11.3773 0.0000 0.0000 0.0000 34.4443 3.8107 7.9121 -4.0734 -12.2574 36.6487 -0.4708 -5.0253 -15.7794 -0.6969 5.3365 -14.8707 6.5806 1.5149 14.7443 1.3464 3.3666 -1.9364 -3.0289 1.2724 -10.1301 -1.6575 -6.5020 -20.1702 3.9229 -8.8924 10.3216 0.5125 -3.9998 6.6609 0.0000 0.0000 0.0000 -81.0576 33.8935 48.1350 128.2916 -53.6617 -92.4555 -0.0000 0.0000 -26.0067 29.8335 -1.3787 -0.7905 -7.1250 0.0000 -0.0000 2.5294 28.3872 -1.0236 0.0000 0.0000 0.0000 90.4805 0.7767 40.3210 -143.9262 45.5638 -104.4249 0.0000 -0.0000 -31.4341 -2.7118 38.7011 -1.6963 7.1250 -0.0000 -0.0000 16.5590 7.3507 19.3168
0.8429 17.6083 11.6992 -4.5360 2.0170 2.6147 0.0000 0.0000 0.0000 -10.8934 -5.8899 -42.5793 17.7822 19.8817 83.5033 -0.1398 -7.8717 -1.6759 0.4384 -4.2485 -11.7769 0.0000 0.0000 0.0000 33.7063 2.5970 9.5805 -3.7233 -11.7828 34.9679 -0.1887 -4.1332 -10.7866 -0.5238 4.6382 -12.8794 6.6982 1.6225 13.9649 1.2758 3.4609 -1.9934 -3.1565 1.3257 -9.7211 -1.7501 -6.6100 -20.2424 3.8469 -9.0021 10.3737 0.4863 -4.0607 6.6922 0.0000 -0.0000 0.0000 -81.7707 35.0111 47.0672 128.0361 -53.7575 -92.2496 -0.0000 0.0000 -25.5274 29.5277 -1.2554 -0.7110 -7.1250 0.0000 -0.0000 2.2966 28.5342 -0.9213 0.0000 -0.0000 0.0000 89.9450 1.4492 40.8787 -144.6561 45.0561 -104.9438 0.0000 -0.0000 -29.8863 -5.3492 35.6525 -3.1239 7.1250 -0.0000 -0.0000 15.0198 4.7200 16.7711
0.8919 17.7026 12.2633 -4.2232 2.4633 2.7635 0.0000 0.0000 0.0000 -11.8051 -6.6078 -42.3857 16.2849 19.6658 79.0795 -0.0709 -6.6150 -2.5295 0.4368 -4.2412 -11.7563 0.0000 0.0000 0.0000 32.7487 1.2509 11.1063 -3.3739 -11.2770 33.2198 0.0091 -3.7937 -4.9942 -0.3373 3.7322 -10.3245 6.8398 1.7025 12.9823 1.1018 3.4900 -1.9927 -3.3814 1.3532 -9.1287 -1.7617 -6.6416 -20.2156 3.8106 -9.0362 10.3800 0.4731 -4.0811 6.6894 0.0000 0.0000 0.0000 -82.3461 36.0446 46.0194 127.8628 -53.8219 -92.1097 -0.0000 0.0000 -25.7329 29.4326 -1.0886 -0.6142 -7.1250 0.0000 -0.0000 2.2284 28.7270 -0.8837 0.0000 0.0000 0.0000 89.4967 1.9362 42.6824 -145.9701 44.1068 -105.8662 0.0000 -0.0000 -31.0541 -9.7018 28.2131 -4.6209 7.1250 -0.0000 -0.0000 12.2075 -1.9778 12.0587
0.9324 17.7965 12.8212 -4.0487 3.1342 2.6287 0.0000 0.0000 0.0000 -12.5449 -7.3420 -41.7430 14.7040 19.3138 74.3434 -0.0288 -5.5365 -2.9302 0.4192 -4.1559 -11.5157 0.0000 0.0000 0.0000 32.0443 -0.2378 12.8906 -3.0171 -10.7227 31.3504 0.0285 -4.2776 1.6938 -0.3622 3.8659 -10.6996 7.0182 1.6938 12.4140 1.0229 3.4478 -1.9534 -3.5288 1.3394 -8.7470 -1.7483 -6.7248 -20.1365 3.6513 -9.1325 10.4768 0.4093 -4.1407 6.7014 -0.0000 0.0000 0.0000 -82.9765 37.0621 44.8808 127.7249 -53.8729 -91.9984 -0.0000 0.0000 -26.4710 29.4781 -0.9567 -0.5407 -7.1250 0.0000 -0.0000 2.2681 28.8778 -0.8913 -0.0000 0.0000 0.0000 89.0629 2.2496 42.5817 -145.7874 44.2416 -105.7388 0.0000 -0.0000 -25.0516 -11.9194 29.2166 -5.8826 7.1250 -0.0000 -0.0000 10.9716 -0.7020 11.0415
0.9618 17.8996 13.3806 -3.8991 3.7423 2.4051 0.0000 0.0000 0.0000 -13.1991 -7.8783 -40.9856 13.0049 18.7839 69.1407 -0.0173 -5.2861 -3.1261 0.4319 -4.2175 -11.6894 0.0000 0.0000 0.0000 31.5217 -1.3894 14.7571 -2.7025 -10.1971 29.6174 -0.2128 -5.2722 8.4530 -0.0395 1.2830 -3.5277 7.0555 1.6951 12.1390 0.9723 3.4306 -2.0194 -3.5887 1.3307 -8.6571 -1.7181 -6.8029 -19.9221 3.5713 -9.2455 10.6520 0.3688 -4.2011 6.7212 0.0000 0.0000 0.0000 -83.5650 38.1593 43.7832 127.5765 -53.9274 -91.8785 -0.0000 0.0000 -27.2695 29.5064 -0.9668 -0.5471 -7.1250 0.0000 -0.0000 2.2898 28.8658 -0.9005 0.0000 0.0000 0.0000 88.6905 1.9553 43.5057 -146.1858 43.9466 -106.0160 0.0000 -0.0000 -21.6915 -14.8506 27.0822 -6.8833 7.1250 -0.0000 -0.0000 9.0972 -2.4044 8.8208
0.9901 17.9982 13.9350 -3.6474 4.3959 2.0701 0.0000 0.0000 0.0000 -13.9612 -8.4319 -39.8998 11.2931 18.0756 63.7299 -0.0160 -5.4205 -3.2802 0.4621 -4.3605 -12.0932 0.0000 0.0000 0.0000 30.9539 -2.4419 16.6641 -2.4478 -9.7425 28.1467 -0.5539 -6.1160 13.3048 -0.1408 -2.4184 6.6635 6.9965 1.6717 12.2298 0.8849 3.4042 -2.2482 -3.6553 1.3004 -8.9613 -1.8038 -6.9049 -19.2352 3.6207 -9.3798 10.6593 0.4027 -4.2764 6.6226 0.0000 0.0000 0.0000 -84.0836 39.5497 42.7418 127.6716 -53.8925 -91.9554 -0.0000 0.0000 -27.9741 29.3560 -0.8110 -0.4562 -7.1250 0.0000 -0.0000 2.1775 29.0463 -0.8470 0.0000 0.0000 0.0000 88.2320 1.1623 44.5020 -146.6766 43.5771 -106.3555 0.0000 -0.0000 -18.3753 -17.4188 24.8486 -7.5106 7.1250 -0.0000 -0.0000 7.3752 -4.2733 6.8633
1.0250 18.0725 14.4797 -3.1370 5.0565 1.9319 0.0000 0.0000 0.0000 -15.0015 -8.9784 -38.7380 9.6339 17.1988 58.2576 -0.0090 -5.8403 -3.8278 0.6779 -5.2644 -14.6643 0.0000 0.0000 0.0000 30.2340 -3.1357 18.2300 -2.2977 -9.4604 27.2463 -0.8274 -6.4927 16.2273 -0.8142 -5.7581 16.0840 6.7018 1.6392 12.2889 0.7438 3.3224 -2.5227 -3.6368 1.2519 -9.3124 -1.8472 -6.9939 -18.5373 3.5856 -9.4895 10.5562 0.4098 -4.3483 6.4789 -0.0000 -0.0000 0.0000 -84.6067 40.7736 41.7770 127.8743 -53.8177 -92.1190 -0.0000 0.0000 -28.3516 29.8034 -0.0762 -0.0437 -7.1250 0.0000 -0.0000 2.5504 29.8872 -0.9412 -0.0000 -0.0000 0.0000 87.7115 0.3489 45.6654 -147.0662 43.2791 -106.6234 0.0000 -0.0000 -15.8363 -19.4953 22.5372 -7.7274 7.1250 -0.0000 -0.0000 5.9056 -6.3259 5.2475
1.0556 18.1335 15.0197 -2.8914 5.5643 1.9288 0.0000 0.0000 0.0000 -15.6803 -9.3171 -37.7358 8.0860 16.1822 52.8720 -0.0137 -6.4410 -4.1475 0.9993 -6.3616 -17.8372 0.0000 0.0000 0.0000 30.2517 -2.9279 19.4613 -2.2840 -9.4342 27.1633 -0.9332 -7.2843 17.2625 -1.6866 -8.1802 23.2627 6.6049 1.6351 12.1994 0.6665 3.2985 -2.7294 -3.6623 1.2317 -9.4911 -1.8490 -6.9991 -18.3632 3.5167 -9.4993 10.7737 0.3884 -4.3579 6.5176 0.0000 -0.0000 0.0000 -85.1018 41.5456 40.7617 127.8700 -53.8193 -92.1155 -0.0000 0.0000 -28.3517 30.2956 -0.1592 -0.0930 -7.1250 0.0000 -0.0000 2.9349 29.7892 -1.0903 0.0000 -0.0000 0.0000 87.2149 -0.3423 47.1636 -147.5239 42.9234 -106.9361 0.0000 -0.0000 -14.3545 -21.2255 19.9515 -7.5492 7.1250 -0.0000 -0.0000 4.6030 -8.7582 3.8613
